<svg xmlns="http://www.w3.org/2000/svg" viewBox="0 0 600 600" role="img" aria-labelledby="title desc">
  <title id="title">Pákový kávovar s mlýnkem</title>
  <desc id="desc">Stylizovaná ilustrace pákového espresso kávovaru podle dodané předlohy.</desc>
  <defs>
    <linearGradient id="steel" x1="0" x2="1" y1="0" y2="1">
      <stop offset="0" stop-color="#f0f0e8"/>
      <stop offset=".45" stop-color="#aaa99e"/>
      <stop offset="1" stop-color="#5d5d58"/>
    </linearGradient>
    <linearGradient id="body" x1="0" x2="1" y1="0" y2="1">
      <stop offset="0" stop-color="#b1917d"/>
      <stop offset=".55" stop-color="#7c5b4f"/>
      <stop offset="1" stop-color="#2f2726"/>
    </linearGradient>
    <linearGradient id="panel" x1="0" x2="1">
      <stop offset="0" stop-color="#2b2424"/>
      <stop offset=".48" stop-color="#8b6b5c"/>
      <stop offset="1" stop-color="#1c1919"/>
    </linearGradient>
    <filter id="shadow" x="-20%" y="-20%" width="140%" height="150%">
      <feDropShadow dx="0" dy="14" stdDeviation="14" flood-color="#1b100b" flood-opacity=".35"/>
    </filter>
  </defs>

  <g filter="url(#shadow)">
    <path d="M98 148h404l22 29v315l-30 47H106l-30-47V177z" fill="#d2d0c3" stroke="#0e1114" stroke-width="5"/>
    <path d="M116 186h369v269H116z" fill="url(#body)" stroke="#1d1e20" stroke-width="4"/>
    <path d="M99 149h404l17 28H82z" fill="url(#steel)" stroke="#101215" stroke-width="4"/>
    <path d="M96 455h408v36H96z" fill="#a7a59a" stroke="#111" stroke-width="4"/>
    <path d="M116 490h367l-17 27H134z" fill="#d4d2c5" stroke="#111" stroke-width="4"/>

    <path d="M92 198h24v214l-15 34-16-26V223z" fill="#edece4" stroke="#0d1115" stroke-width="4"/>
    <path d="M488 198h24v214l15 34 16-26V223z" fill="#edece4" stroke="#0d1115" stroke-width="4"/>
    <rect x="67" y="165" width="18" height="17" rx="2" fill="#73746f" stroke="#0d1115" stroke-width="3"/>
    <rect x="515" y="165" width="18" height="50" rx="6" fill="#73746f" stroke="#0d1115" stroke-width="3"/>

    <path d="M124 165h353v105c-38 9-66 8-92 0-34-11-63-11-98 0-35 11-68 11-101-2-26-10-43-15-62-11z" fill="url(#panel)" stroke="#151515" stroke-width="4"/>
    <path d="M124 254c38-9 64-3 93 17 42 29 105 27 150 1 30-18 67-27 110-16v27H124z" fill="#c6a38b" stroke="#151515" stroke-width="3"/>

    <g fill="#ecece8" stroke="#111" stroke-width="4">
      <circle cx="142" cy="206" r="18"/>
      <circle cx="188" cy="206" r="18"/>
      <circle cx="234" cy="206" r="18"/>
      <circle cx="363" cy="206" r="18"/>
      <circle cx="410" cy="206" r="18"/>
      <circle cx="457" cy="206" r="18"/>
    </g>
    <g stroke="#111" stroke-width="5" stroke-linecap="round">
      <path d="M131 195l22 22"/>
      <path d="M153 195l-22 22"/>
      <path d="M223 195l22 22"/>
      <path d="M245 195l-22 22"/>
      <path d="M352 195l22 22"/>
      <path d="M374 195l-22 22"/>
      <path d="M399 195l22 22"/>
      <path d="M421 195l-22 22"/>
      <path d="M446 195l22 22"/>
      <path d="M468 195l-22 22"/>
    </g>
    <circle cx="188" cy="206" r="11" fill="#aeb1ad" stroke="#fff" stroke-width="3"/>
    <circle cx="300" cy="218" r="36" fill="#d8d7ce" stroke="#efefeb" stroke-width="7"/>
    <circle cx="300" cy="218" r="27" fill="#b8b7ad" stroke="#1b1b1b" stroke-width="3"/>
    <path d="M300 218l-12-20" stroke="#d23e2e" stroke-width="4" stroke-linecap="round"/>
    <path d="M300 218l17-7" stroke="#111" stroke-width="3" stroke-linecap="round"/>
    <circle cx="300" cy="218" r="4" fill="#111"/>

    <g fill="#e8e8e0" stroke="#151515" stroke-width="3">
      <circle cx="219" cy="254" r="5"/>
      <circle cx="250" cy="254" r="5"/>
      <circle cx="341" cy="254" r="5"/>
      <circle cx="371" cy="254" r="5"/>
    </g>

    <path d="M152 286h89v73h-89z" fill="#d9d6c8" stroke="#151515" stroke-width="4"/>
    <path d="M170 359h54l-9 27h-36z" fill="#050505" stroke="#0f0f0f" stroke-width="4"/>
    <path d="M147 284h100v29h-100z" fill="#111"/>
    <path d="M331 287h91v79h-91z" fill="#d7d3c6" stroke="#151515" stroke-width="4"/>
    <path d="M350 361c8 20 44 20 52 0z" fill="#fff" stroke="#e8e8e8" stroke-width="3"/>
    <path d="M399 324c23 1 50 17 60 34" fill="none" stroke="#111" stroke-width="16" stroke-linecap="round"/>
    <path d="M460 358l70 85" stroke="#e8e8e2" stroke-width="13" stroke-linecap="round"/>
    <path d="M457 354l74 90" stroke="#111" stroke-width="3" stroke-linecap="round"/>
    <circle cx="452" cy="348" r="28" fill="#e2ddd2" stroke="#111" stroke-width="5"/>
    <path d="M504 323c13-37 48-34 43 1" fill="none" stroke="#182a30" stroke-width="10" stroke-linecap="round"/>

    <path d="M385 358c-2 23-2 46-9 68" stroke="#d87829" stroke-width="3" stroke-linecap="round"/>
    <path d="M421 358c-1 26-7 49-12 72" stroke="#d87829" stroke-width="3" stroke-linecap="round"/>
    <path d="M358 414h91l-15 63h-59z" fill="#eadfd3" opacity=".86" stroke="#8e8c84" stroke-width="3"/>
    <path d="M372 454h63l-8 23h-48z" fill="#c96921"/>
    <circle cx="392" cy="406" r="3" fill="#d87829"/>
    <circle cx="405" cy="433" r="3" fill="#d87829"/>
    <circle cx="384" cy="456" r="3" fill="#d87829"/>

    <path d="M101 144h394" stroke="#111" stroke-width="4"/>
    <path d="M154 42h205l-18 84H173z" fill="#9fb1b5" opacity=".86" stroke="#111" stroke-width="4"/>
    <path d="M171 55h172l-14 55H184z" fill="#bad4dd" opacity=".65"/>
    <path d="M171 101c45-17 75-15 119 9 17 9 34 10 51 9l-3 17H176z" fill="#6f6d69"/>
    <path d="M183 126h145v20H183z" fill="#c7c5bb" stroke="#111" stroke-width="3"/>
    <path d="M145 44c63 9 151 7 233 0" fill="none" stroke="#5a6470" stroke-width="7" stroke-linecap="round"/>
  </g>
</svg>
